<svg xmlns="http://www.w3.org/2000/svg" viewBox="0 0 100 100">
    <path d="M0 0h100v100H0z" fill="transparent"/>
    <path d="M42.036 60.585a1.975 1.975 0 0 1-2.678.798L12.308 46.76a1.975 1.975 0 0 1 .316-3.61l21.954-7.323a1.975 1.975 0 0 0 1.248-1.249l7.324-21.954a1.975 1.975 0 0 1 3.61-.316l14.623 27.05a1.975 1.975 0 0 1-.798 2.678l-3.476 1.88a1.975 1.975 0 0 1-2.678-.798l-5.94-11.005a1.975 1.975 0 0 0-3.619.317l-2.797 8.397a1.975 1.975 0 0 1-1.248 1.248l-8.397 2.797a1.975 1.975 0 0 0-.316 3.618l11.004 5.941a1.975 1.975 0 0 1 .798 2.678zm20.24-15.42a1.975 1.975 0 0 1 2.678.797l19.189 35.51a1.975 1.975 0 0 1-2.67 2.67l-35.51-19.188a1.975 1.975 0 0 1-.799-2.678l1.88-3.476a1.975 1.975 0 0 1 2.67-.798l12.214 6.596a1.975 1.975 0 0 0 2.67-2.67l-6.596-12.213a1.975 1.975 0 0 1 .798-2.67z" fill="#fff"/>
</svg>
